<?xml version="1.0" encoding="utf-8"?>
<!-- Generator: Adobe Illustrator 22.1.0, SVG Export Plug-In . SVG Version: 6.00 Build 0)  -->
<svg version="1.1" id="Layer_1" xmlns="http://www.w3.org/2000/svg" xmlns:xlink="http://www.w3.org/1999/xlink" x="0px" y="0px"
	 viewBox="0 0 314.5 67.5" style="enable-background:new 0 0 314.5 67.5;" xml:space="preserve">
<style type="text/css">
	.st0{fill:#43B02A;}
</style>
<g>
	<g>
		<path class="st0" d="M19.4,14.9c-0.2-0.3-0.4-0.6-0.9-0.6H18c-0.5,0-0.8,0.3-0.9,0.6l-17,36.8c-0.3,0.7,0.1,1.4,0.9,1.4h4.8
			c0.9,0,1.4-0.5,1.6-1.1l2.7-5.9h16.4l2.7,5.9c0.4,0.8,0.8,1.1,1.6,1.1h4.8c0.8,0,1.3-0.7,0.9-1.4L19.4,14.9z M12.6,40.1l5.4-12
			h0.2l5.5,12H12.6z"/>
	</g>
	<g>
		<path class="st0" d="M71.5,14.9h-5c-0.6,0-1,0.5-1,1v22.6h-0.1L42.6,14.3h-1.4c-0.5,0-1,0.4-1,1v36.8c0,0.5,0.5,1,1,1h5
			c0.6,0,1-0.5,1-1V28.6h0.1l22.9,25.1h1.3c0.5,0,1-0.4,1-1V15.9C72.6,15.4,72.1,14.9,71.5,14.9z"/>
	</g>
	<g>
		<path class="st0" d="M96.1,14.9c-0.2-0.3-0.4-0.6-0.9-0.6h-0.5c-0.5,0-0.8,0.3-0.9,0.6l-17,36.8c-0.3,0.7,0.1,1.4,0.9,1.4h4.8
			c0.9,0,1.4-0.5,1.6-1.1l2.7-5.9h16.4l2.7,5.9c0.4,0.8,0.8,1.1,1.6,1.1h4.8c0.8,0,1.3-0.7,0.9-1.4L96.1,14.9z M89.3,40.1l5.4-12
			h0.2l5.5,12H89.3z"/>
	</g>
	<g>
		<path class="st0" d="M142.9,43.4c-0.3-0.3-0.9-0.4-1.4,0c-2.3,1.9-5.1,3.1-8.4,3.1c-7,0-12.3-5.8-12.3-12.6
			c0-6.9,5.2-12.8,12.2-12.8c3.1,0,6.1,1.2,8.4,3.2c0.4,0.4,1,0.4,1.4,0l3.3-3.4c0.4-0.4,0.4-1.1-0.1-1.5c-3.7-3.3-7.7-5.1-13.2-5.1
			c-10.9,0-19.8,8.8-19.8,19.8c0,10.9,8.8,19.6,19.8,19.6c4.9,0,9.6-1.7,13.3-5.3c0.4-0.4,0.5-1.1,0.1-1.5L142.9,43.4z"/>
	</g>
	<g>
		<path class="st0" d="M168.8,14.3c-10.9,0-19.6,8.8-19.6,19.8c0,10.9,8.7,19.6,19.6,19.6s19.7-8.7,19.7-19.6
			C188.5,23.1,179.7,14.3,168.8,14.3z M168.8,46.6c-6.9,0-12.5-5.6-12.5-12.5s5.6-12.6,12.5-12.6s12.6,5.7,12.6,12.6
			C181.3,41,175.7,46.6,168.8,46.6z"/>
	</g>
	<g>
		<path class="st0" d="M225.8,14.9h-5c-0.6,0-1,0.5-1,1v22.6h-0.1l-22.8-24.2h-1.4c-0.5,0-1,0.4-1,1v36.8c0,0.5,0.5,1,1,1h5
			c0.6,0,1-0.5,1-1V28.6h0.1l22.9,25.1h1.3c0.5,0,1-0.4,1-1V15.9C226.8,15.4,226.3,14.9,225.8,14.9z"/>
	</g>
	<g>
		<path class="st0" d="M247.7,14.9h-13c-0.5,0-1,0.5-1,1v36.2c0,0.5,0.4,1,1,1h13c10.6,0,19.2-8.6,19.2-19.2
			C266.9,23.5,258.3,14.9,247.7,14.9z M247.1,46.5h-6.3v-25h6.2c7.1,0,12.3,5.4,12.3,12.5C259.4,41.1,254.2,46.5,247.1,46.5z"/>
	</g>
	<g>
		<path class="st0" d="M303.5,51.8L286.6,15c-0.2-0.3-0.4-0.6-0.9-0.6h-0.5c-0.5,0-0.8,0.3-0.9,0.6l-17,36.8
			c-0.3,0.7,0.1,1.4,0.9,1.4h4.8c0.9,0,1.4-0.5,1.6-1.1l2.7-5.9h16.4l2.7,5.9c0.4,0.8,0.8,1.1,1.6,1.1h4.8
			C303.4,53.2,303.8,52.5,303.5,51.8z M279.9,40.1l5.4-12h0.2l5.5,12H279.9z"/>
	</g>
	<g>
		<g>
			<path class="st0" d="M310.3,52.6h0.3c0.1,0,0.2-0.1,0.2-0.2v-1h0.6l0.4,1.1c0,0.1,0.1,0.1,0.2,0.1h0.4c0.1,0,0.2-0.1,0.2-0.2
				c-0.2-0.3-0.3-0.7-0.5-1c0.3-0.1,0.7-0.4,0.7-1c0-0.7-0.5-1.1-1.1-1.1h-1.3c-0.1,0-0.2,0.1-0.2,0.2v2.9
				C310.2,52.5,310.2,52.6,310.3,52.6z M310.8,49.9h0.8c0.3,0,0.4,0.2,0.4,0.4c0,0.2-0.2,0.4-0.4,0.4h-0.8V49.9z"/>
		</g>
		<g>
			<path class="st0" d="M311.3,54.2c1.8,0,3.2-1.4,3.2-3.2c0-1.8-1.5-3.2-3.2-3.2c-1.8,0-3.2,1.5-3.2,3.2S309.5,54.2,311.3,54.2z
				 M311.3,48.3c1.4,0,2.6,1.2,2.6,2.6s-1.2,2.6-2.6,2.6s-2.6-1.2-2.6-2.6S309.9,48.3,311.3,48.3z"/>
		</g>
	</g>
</g>
</svg>
